<svg id="Capa_1" enable-background="new 0 0 512 512" height="512" viewBox="0 0 512 512" width="512" xmlns="http://www.w3.org/2000/svg"><g><g><circle cx="438.485" cy="223.998" fill="#ffdcce" r="42.631"/><circle cx="73.515" cy="223.998" fill="#ffdcce" r="42.631"/><path d="m208.205 414.166 47.795 45.167-74.34 45.167h-103.212c8.53-69.991 39.482-90.334 39.482-90.334z" fill="#ffefe0"/><path d="m433.552 504.5h-103.212l-74.34-45.167 47.795-45.167h90.275s30.952 20.343 39.482 90.334z" fill="#ffefe0"/><path d="m117.93 414.166s-10.317 6.781-20.679 25.981c27.935 22.794 68.935 35.226 127.147 38.386l31.602-19.2-47.795-45.167z" fill="#fbe5c8"/><path d="m287.602 478.533c58.212-3.16 99.212-15.592 127.147-38.386-10.363-19.2-20.679-25.981-20.679-25.981h-90.275l-47.795 45.167z" fill="#fbe5c8"/><path d="m330.34 504.5h-148.68l26.545-90.334h95.59z" fill="#80dfb5"/><path d="m190.225 475.352c19.484 2.688 41.33 4.005 65.775 4.005s46.291-1.316 65.775-4.005l-17.98-61.186h-95.59z" fill="#36d39a"/><path d="m442.03 219.268c0-31.759-7.966-61.655-21.998-87.811l-26.693-29.615-137.339-42.472-134.924 31.436-29.109 40.651c-14.031 26.156-21.998 56.052-21.998 87.811 0 11.724 1.087 23.194 3.163 34.316 4.811 25.768 8.212 51.796 9.317 77.987 2.675 63.404 21.151 117.787 173.55 117.787s170.875-54.383 173.55-117.787c1.105-26.19 4.506-52.218 9.317-77.987 2.078-11.122 3.164-22.592 3.164-34.316z" fill="#b2b0bc"/><path d="m393.34 101.841-136.74-42.286-.6.138-.6-.138-136.74 42.286c1.014 20.099 1.301 40.223 1.202 60.348-.001.224-.002.448-.002.672 0 28.457 8.777 54.903 23.766 76.773 14.036 20.48 38.852 30.725 63.237 26.051l49.137-9.417 49.154 9.421c23.879 4.577 48.464-4.982 62.416-24.895 15.478-22.092 24.57-48.971 24.57-77.933 0-.224-.001-.448-.002-.672-.1-20.125.188-40.248 1.202-60.348z" fill="#ffdcce"/><path d="m96.606 216.151c0-45.149 6.272-87.235 22.554-122.668l-27.193 37.975c-14.031 26.156-21.998 56.051-21.998 87.811 0 11.724 1.087 23.194 3.163 34.316 4.811 25.769 8.212 51.796 9.317 77.986 2.516 59.638 19.027 111.289 147.802 117.215-82.894-36.912-133.645-133.57-133.645-232.635z" fill="#a19dae"/><path d="m144.215 63.637c-.791-.381-1.593-.748-2.406-1.1-22.566-9.776-47.624-5.76-65.779 8.312-5.414 4.196-8.295 10.847-7.653 17.666 2.152 22.869 16.362 43.895 38.928 53.671.813.352 1.629.687 2.448 1.003 51.734 19.997 84.435-55.491 34.462-79.552z" fill="#80dfb5"/><path d="m367.785 63.637c.791-.381 1.593-.748 2.406-1.1 22.566-9.776 47.624-5.76 65.779 8.312 5.414 4.196 8.295 10.847 7.653 17.666-2.152 22.869-16.362 43.895-38.928 53.671-.813.352-1.629.687-2.448 1.003-51.734 19.997-84.435-55.491-34.462-79.552z" fill="#80dfb5"/><path d="m210.95 42.908c-.596-.645-1.207-1.281-1.833-1.908-17.39-17.39-42.168-22.871-64.226-16.462-6.577 1.911-11.702 7.036-13.614 13.614-6.409 22.058-.928 46.836 16.462 64.226.627.627 1.263 1.238 1.908 1.833 40.753 37.622 98.925-20.55 61.303-61.303z" fill="#b0ebce"/><path d="m301.05 42.908c.596-.645 1.207-1.281 1.833-1.908 17.39-17.39 42.168-22.871 64.226-16.462 6.577 1.911 11.702 7.036 13.614 13.614 6.409 22.058.928 46.836-16.462 64.226-.627.627-1.263 1.238-1.908 1.833-40.753 37.622-98.925-20.55-61.303-61.303z" fill="#b0ebce"/><path d="m265.626 9.975c-6.002-3.3-13.25-3.3-19.252 0-20.129 11.065-33.775 32.462-33.775 57.055 0 .886.018 1.768.053 2.645 2.214 55.42 84.481 55.42 86.696 0 .035-.877.053-1.759.053-2.645 0-24.593-13.645-45.99-33.775-57.055z" fill="#80dfb5"/><path d="m256 282.816c-28.956 36.195-71.62 21.195-94.121 9.309-5.457-2.883-5.846-10.462-.789-14 12.898-9.025 20.408-28.787 31.063-38.717 16.552-15.427 45.068-24.798 63.848-7.771 18.779-17.027 47.295-7.655 63.848 7.771 10.654 9.93 18.164 29.692 31.063 38.717 5.057 3.538 4.668 11.117-.789 14-22.503 11.886-65.167 26.885-94.123-9.309z" fill="#c7c5cb"/><path d="m94.554 65.893c0-1.741.086-3.461.212-5.17-6.728 2.319-13.069 5.732-18.737 10.125-5.414 4.196-8.294 10.847-7.653 17.667 2.152 22.869 16.362 43.895 38.928 53.671.813.352 1.629.687 2.448 1.003 18.535 7.165 34.626 2.07 45.348-8.523-34.14-4.328-60.546-33.457-60.546-68.773z" fill="#36d39a"/></g><g><path d="m177.024 185.099c-4.142 0-7.5 3.358-7.5 7.5v15.176c0 4.142 3.358 7.5 7.5 7.5s7.5-3.358 7.5-7.5v-15.176c-.001-4.143-3.358-7.5-7.5-7.5z"/><path d="m334.977 185.099c-4.142 0-7.5 3.358-7.5 7.5v15.176c0 4.142 3.358 7.5 7.5 7.5s7.5-3.358 7.5-7.5v-15.176c0-4.143-3.358-7.5-7.5-7.5z"/><path d="m69.015 273.924c2.446 15.625 4.168 30.525 5.199 45.115.292 4.132 3.873 7.246 8.01 6.953 4.132-.292 7.244-3.878 6.953-8.01-1.554-22.005-4.599-44.001-8.665-65.768-2.039-10.924-3.036-22.001-3.036-32.938 0-26.007 5.743-51.972 16.753-75.549 5.316 3.383 11.957 6.51 18.147 8.252.015 6.159-.006 9.039-.01 10.893 0 29.059 8.672 57.073 25.078 81.011 6.57 9.585 15.238 17.23 25.393 22.5-1.924 2.196-3.927 4.122-6.044 5.604-9.67 6.767-8.814 21.281 1.586 26.776 11.481 6.065 29.099 13.458 47.83 14.237 19.659.817 36.376-5.545 49.791-18.938 13.425 13.401 30.132 19.752 49.791 18.938 18.731-.779 36.349-8.173 47.831-14.238 10.393-5.491 11.261-20.006 1.585-26.776-2.086-1.46-4.061-3.352-5.96-5.509 9.765-5.049 18.111-12.309 24.461-21.371 16.961-24.208 25.926-52.644 25.926-82.235-.005-2.035-.025-4.617-.01-10.893 6.178-1.746 12.745-4.814 18.147-8.252 11.003 23.563 16.753 49.529 16.753 75.549 0 31.583-10.066 54.906-12.473 111.983-1.382 32.764-7.052 61.526-32.862 81.305-33.246 25.474-91.319 29.297-133.189 29.297-31.398 0-68.781-2.349-98.646-11.999h-.001c-44.554-14.396-61.81-40.292-66.237-82.14-.437-4.119-4.13-7.105-8.247-6.669-4.119.436-7.105 4.128-6.669 8.247 2.205 20.842 7.577 46.429 28.319 67.143-10.906 12.155-27.533 38.102-33.51 87.152-.544 4.466 2.945 8.407 7.445 8.407h355.093c4.499 0 7.989-3.94 7.445-8.407-1.677-13.76-4.336-26.675-7.905-38.385-1.207-3.962-5.396-6.195-9.361-4.988-3.962 1.207-6.195 5.398-4.988 9.361 2.584 8.477 4.659 17.67 6.193 27.419h-88.98c-1.956-6.658-11.119-37.84-13.098-44.573 31.346-4.771 55.424-13.41 73.194-26.261 3.331 3.688 7.597 9.273 11.957 17.302 1.977 3.64 6.529 4.989 10.17 3.012 3.64-1.977 4.988-6.53 3.012-10.17-4.856-8.942-9.752-15.412-13.715-19.857 23.741-23.687 28.302-54.564 29.567-84.562.779-18.454 2.735-37.563 5.937-57.967 25.541-2.282 45.634-23.792 45.634-49.917 0-25.712-19.462-46.955-44.427-49.795-3.309-13.843-8.116-27.312-14.376-40.081 11.95-11.804 19.652-27.61 21.279-44.9.886-9.418-3.048-18.5-10.525-24.296-14.362-11.132-32.206-16.403-50.043-15.031-.414-4.633-1.269-9.264-2.596-13.831-2.64-9.084-9.638-16.083-18.722-18.722-24.79-7.203-51.459-.716-70.128 16.917-6.497-12.826-16.775-23.673-29.833-30.851-8.29-4.557-18.187-4.557-26.477 0-13.058 7.178-23.335 18.025-29.833 30.851-18.669-17.633-45.339-24.12-70.128-16.917-9.084 2.639-16.083 9.638-18.722 18.722-1.327 4.567-2.182 9.198-2.596 13.831-17.839-1.372-35.682 3.899-50.043 15.031-7.475 5.794-11.41 14.877-10.523 24.294 1.627 17.291 9.329 33.096 21.278 44.901-6.259 12.769-11.066 26.238-14.375 40.08-24.965 2.841-44.427 24.083-44.427 49.796-.001 26.121 20.086 47.629 45.623 49.917zm135.197 180.439c16.59 1.762 34.91 2.496 51.788 2.496 17.033 0 35.128-.726 51.788-2.496 1.271 4.326 9.683 32.951 12.529 42.637h-128.634zm-88.254-28.194c20.807 15.069 48.006 22.425 73.19 26.258-2.123 7.225-9.782 33.286-13.098 44.573h-88.982c6.397-40.694 20.672-61.724 28.89-70.831zm230.658-140.669c-10.114 5.343-25.515 11.851-41.448 12.513-17.597.732-32.174-5.954-43.311-19.875-2.999-3.749-8.711-3.752-11.713 0-11.137 13.921-25.706 20.608-43.311 19.875-15.933-.663-31.334-7.171-41.447-12.513-.493-.261-.462-.896.007-1.224 6.16-4.31 10.995-10.32 15.395-16.676 11.154-16.939 13.168-20.327 20.447-26.112 18.882-15.006 39.3-13.742 49.728-4.287 2.858 2.592 7.217 2.592 10.075 0 14.429-13.082 43.295-7.777 59.52 14.54 7.578 10.422 14.57 24.503 26.05 32.536.474.331.496.963.008 1.223zm14.808-49.001c-5.389 7.691-12.63 13.729-21.151 17.686-3.215-4.893-6.509-10.092-10.217-14.69-8.538-10.584-21.939-18.842-35.178-22.396-23.891-6.409-37.434 4.471-38.878 5.056-19.34-12.882-45.159-6.761-63.437 7.129-9.745 7.404-13.636 13.943-20.773 24.805-8.857-4.144-16.381-10.526-21.975-18.686-14.688-21.431-22.451-46.512-22.451-72.532.007-2.201.022-4.66.019-8.838 19.73-.258 36.555-12.784 44.452-30.702 2.291.347 4.605.523 6.933.523 15.632 0 30.644-8.077 40.242-20.05 8.87 9.087 22.004 14.946 36.991 14.946 14.703 0 27.889-5.624 36.99-14.945 8.559 10.668 20.583 17.249 31.811 19.286 5.03.912 10.166 1.026 15.364.24 7.817 17.74 24.522 30.442 44.453 30.702-.004 4.219.011 6.796.018 8.838-.001 26.496-8.028 51.955-23.213 73.628zm85.876-46.501c15.115 3.924 26.309 17.684 26.309 34.009 0 16.93-12.038 31.101-28.004 34.403 2.363-13.007 3.92-23.984 3.92-39.134 0-9.388-.727-19.462-2.225-29.278zm-15.929-113.209c3.396 2.632 5.183 6.758 4.781 11.035-4.283 45.511-61.487 71.596-81.56 30.899 17.803-8.937 32.842-29.697 35.709-53.762 14.601-1.474 29.303 2.708 41.07 11.828zm-126.506-26.834c13.684-16.64 37.408-24.808 60.149-18.2 4.126 1.199 7.305 4.378 8.504 8.504 10.693 36.8-17.997 73.162-46.04 68.074-10.523-1.907-19.844-8.874-25.421-17.655 2.859-6.183 4.483-13.136 4.785-20.689.273-6.874-.455-13.744-1.977-20.034zm-54.878-33.393c3.763-2.069 8.261-2.07 12.026 0 18.745 10.304 30.737 30.479 29.839 52.827-.849 21.279-15.996 34.353-35.853 34.353-20.025 0-35.867-13.267-35.897-36.608 0-.031-.002-.061-.002-.091 0-20.803 11.285-40.255 29.887-50.481zm-111.504 23.696c1.199-4.126 4.378-7.305 8.504-8.504 5.311-1.543 10.73-2.295 16.105-2.295 17.884 0 34.076 8.361 44.044 20.495-1.286 5.317-2.035 11.2-2.035 17.087v.001c0 8.328 1.436 16.273 4.852 23.652-9.293 14.736-26.484 21.121-40.642 16.714-.016-.005-.032-.007-.048-.012-21.817-6.825-39.508-37.103-30.78-67.138zm-57.853 36.531c10.22-7.922 22.656-12.118 35.314-12.118 1.916 0 3.836.096 5.755.29 2.939 24.655 18.432 45.089 35.709 53.762-20.164 40.967-77.301 14.347-81.559-30.899-.402-4.277 1.385-8.402 4.781-11.035zm-15.93 113.209c-1.458 9.562-2.225 19.752-2.225 29.278 0 15.107 1.504 25.881 3.911 39.132-15.961-3.306-27.996-17.475-27.996-34.401.001-16.326 11.196-30.086 26.31-34.009z"/></g></g></svg>